# xmcd CD database file
#
# Track frame offsets:
#	150
#	15055
#	25355
#	26322
#	45730
#	64330
#	81505
#	100855
#	115780
#	128830
#	144577
#	161902
#	179005
#	192430
#	211480
#	226930
#
# Disc length: 3345 seconds
#
# Revision: 2
# Processed by: cddbd v1.4b41PL1 Copyright (c) Steve Scherf et al.
# Submitted via: Feurio! 1.50.2ﬂ - http://www.feurio.com
#
DISCID=db0d0f10
DTITLE=Alpenrebellen - I will gar nix...
DYEAR=1900
DGENRE=
TTITLE0=Gemmas an
TTITLE1=Frech muaﬂt sein
TTITLE2=Wlawasowaservo I
TTITLE3=I will gar nix...
TTITLE4=Freie Sicht auf Venedig
TTITLE5=In der Steiermark
TTITLE6=Frei wie a Adler
TTITLE7=Heut gemma rocken
TTITLE8=Aber Hund samma schon
TTITLE9=Kann net tanz'n
TTITLE10=Du hast das
TTITLE11=Bin I denn a Geldmaschin'
TTITLE12=Erzberg
TTITLE13=Tyrannosaurus Rex
TTITLE14=Wir sprengen alle Ketten
TTITLE15=Winteraustreib'n
EXTD=
EXTT0=
EXTT1=
EXTT2=
EXTT3=
EXTT4=
EXTT5=
EXTT6=
EXTT7=
EXTT8=
EXTT9=
EXTT10=
EXTT11=
EXTT12=
EXTT13=
EXTT14=
EXTT15=
PLAYORDER=
